Coordinates
version=1
nRows=5
nColumns=40
inDegrees=yes

Units are S.I. units (second, meters, Newtons, ...)
If the header above contains a line with 'inDegrees', this indicates whether rotational values are in degrees (yes) or radians (no).

endheader
time	pelvis_tilt	pelvis_list	pelvis_rotation	pelvis_tx	pelvis_ty	pelvis_tz	hip_flexion_r	hip_adduction_r	hip_rotation_r	knee_angle_r	knee_angle_r_beta	ankle_angle_r	subtalar_angle_r	mtp_angle_r	hip_flexion_l	hip_adduction_l	hip_rotation_l	knee_angle_l	knee_angle_l_beta	ankle_angle_l	subtalar_angle_l	mtp_angle_l	lumbar_extension	lumbar_bending	lumbar_rotation	arm_flex_r	arm_add_r	arm_rot_r	elbow_flex_r	pro_sup_r	wrist_flex_r	wrist_dev_r	arm_flex_l	arm_add_l	arm_rot_l	elbow_flex_l	pro_sup_l	wrist_flex_l	wrist_dev_l
      3.60000000	     -7.36640771	     -5.25328715	     -2.28272487	     -0.41747450	      0.90262352	     -1.04466463	     61.45135819	      1.84043386	     -8.35068193	      6.78106047	      0.11835183	      4.10611126	      0.00000000	      0.00000000	     47.49758462	     -4.24585184	     -0.73646937	     67.29022896	      1.17443605	     14.39990355	      0.00000000	      0.00000000	    -10.64566772	     -1.84006309	      5.09991251	     89.96898744	    -13.03743447	      9.64083379	     48.16866177	     36.80155586	      0.00000000	      0.00000000	     89.95846696	    -30.28887900	      3.31525957	     50.33602606	     56.23305997	      0.00000000	      0.00000000
      3.60500000	     -7.37725327	     -5.23742652	     -2.33587006	     -0.41758702	      0.90215759	     -1.04452825	     61.47740444	      1.88913090	     -8.30545405	      6.76236058	      0.11802546	      4.07711280	      0.00000000	      0.00000000	     47.56724364	     -4.24979424	     -0.73363807	     67.39644925	      1.17628994	     14.45585434	      0.00000000	      0.00000000	    -10.64610833	     -1.87389096	      5.14594124	     89.96903053	    -13.01910898	      9.60392306	     48.16318663	     37.11441356	      0.00000000	      0.00000000	     89.95850193	    -30.28242331	      3.35531811	     50.39399686	     55.65780164	      0.00000000	      0.00000000
      3.61000000	     -7.39747200	     -5.25987314	     -2.35461660	     -0.41771321	      0.90169828	     -1.04445398	     61.52316643	      1.92506153	     -8.32846413	      6.77021120	      0.11816248	      4.13241676	      0.00000000	      0.00000000	     47.64319992	     -4.26253119	     -0.67069893	     67.48278430	      1.17779677	     14.41092969	      0.00000000	      0.00000000	    -10.65996998	     -1.80015482	      5.04968134	     89.96910547	    -12.71681917	      9.80484951	     48.95555982	     27.18253331	      0.00000000	      0.00000000	     89.95843383	    -30.58942268	      2.31483024	     49.81031058	     70.74212177	      0.00000000	      0.00000000
      3.61500000	     -7.40841066	     -5.30134443	     -2.38138385	     -0.41778172	      0.90119511	     -1.04434898	     61.57828544	      1.97719334	     -8.34913269	      6.83688912	      0.11932623	      4.22812658	      0.00000000	      0.00000000	     47.71939685	     -4.28073928	     -0.58740600	     67.61481214	      1.18010109	     14.55922001	      0.00000000	      0.00000000	    -10.64485788	     -1.78034736	      5.11179539	     89.96915802	    -12.77666079	      9.74731844	     48.79697105	     29.07145799	      0.00000000	      0.00000000	     89.95852727	    -30.51623522	      2.51727594	     49.90208679	     68.00526583	      0.00000000	      0.00000000
      3.62000000	     -7.45708869	     -5.28258423	     -2.40587877	     -0.41791697	      0.90064070	     -1.04423797	     61.63643798	      1.99856462	     -8.30404279	      6.78436057	      0.11840943	      4.23854234	      0.00000000	      0.00000000	     47.82984324	     -4.25603136	     -0.56161575	     67.72454210	      1.18201624	     14.64768712	      0.00000000	      0.00000000	    -10.59709889	     -1.81665521	      5.15722383	     89.96914074	    -12.82663026	      9.69008628	     48.69666619	     30.69088734	      0.00000000	      0.00000000	     89.95857148	    -30.45737594	      2.68897851	     50.04760887	     65.41279952	      0.00000000	      0.00000000
